<?xml version="1.0" encoding="utf-8"?>
<!-- Generator: Adobe Illustrator 23.1.0, SVG Export Plug-In . SVG Version: 6.00 Build 0)  -->
<svg version="1.1" id="Calque_1" xmlns="http://www.w3.org/2000/svg" xmlns:xlink="http://www.w3.org/1999/xlink" x="0px" y="0px"
	 viewBox="0 0 566.9 566.9" style="enable-background:new 0 0 566.9 566.9;" xml:space="preserve">
<style type="text/css">
	.st0{fill:none;stroke:#FFFFFF;stroke-width:20;stroke-miterlimit:10;}
	.st1{fill:#FFFFFF;stroke:#FFFFFF;stroke-width:10;stroke-miterlimit:10;}
</style>
<g>
	<circle cx="283.5" cy="283.5" r="274.4"/>
</g>
<circle class="st0" cx="283.5" cy="283.5" r="240.8"/>
<path class="st1" d="M416.8,426.9h-50.9c-2.1,0-4-1.5-4.7-3.9l-25.7-80.2H231.4L205.7,423c-0.8,2.3-2.7,3.9-4.7,3.9h-50.9
	c-1.7,0-3.2-0.9-4.2-2.6c-0.9-1.6-1.1-3.7-0.6-5.5L230.1,155c0.9-3.1,4-4.6,6.5-3.5c2.7,1.2,4,4.6,2.9,7.8L157.4,415h39.9l25.7-80.2
	c0.8-2.3,2.7-3.9,4.7-3.9H339c2.1,0,4,1.5,4.7,3.9l25.7,80.2h39.9L305.3,90.7h-43.8l-11.7,36.3c-0.9,3.1-4,4.6-6.5,3.5
	c-2.7-1.2-4-4.6-2.9-7.8l12.9-40.2c0.8-2.3,2.7-3.9,4.7-3.9h50.9c2.1,0,4,1.5,4.7,3.9l108,336.2c0.6,1.8,0.4,3.9-0.6,5.5
	C420,425.9,418.5,426.9,416.8,426.9z M323.6,294.8c-2.1,0-4-1.5-4.7-3.9l-35.4-110.2l-32.7,102h48c2.8,0,5.1,2.7,5.1,6
	c0,3.3-2.3,6-5.1,6h-55.4c-1.7,0-3.2-0.9-4.2-2.6c-0.9-1.6-1.1-3.7-0.6-5.5l40.1-125c1.5-4.6,8-4.6,9.5,0l40.1,125
	c0.9,3.1-0.3,6.5-2.9,7.8C324.8,294.7,324.2,294.8,323.6,294.8z"/>
</svg>
