<?xml version="1.0" encoding="utf-8"?>
<!-- Generator: Adobe Illustrator 23.1.0, SVG Export Plug-In . SVG Version: 6.00 Build 0)  -->
<svg version="1.1" id="Calque_1" xmlns="http://www.w3.org/2000/svg" xmlns:xlink="http://www.w3.org/1999/xlink" x="0px" y="0px"
	 viewBox="0 0 566.9 566.9" style="enable-background:new 0 0 566.9 566.9;" xml:space="preserve">
<style type="text/css">
	.st0{fill:none;stroke:#FFFFFF;stroke-width:10;stroke-miterlimit:10;}
	.st1{fill:#FFFFFF;stroke:#FFFFFF;stroke-width:0.5;stroke-miterlimit:10;}
</style>
<g>
	<circle cx="283.5" cy="283.5" r="274.4"/>
</g>
<circle class="st0" cx="283.5" cy="283.5" r="258.1"/>
<path class="st1" d="M424,436.3h-53.6c-2.2,0-4.2-1.6-5-4.1l-27.1-84.5H228.6l-27.1,84.5c-0.8,2.4-2.8,4.1-5,4.1h-53.6
	c-1.8,0-3.4-1-4.4-2.7c-1-1.7-1.2-3.9-0.6-5.8l89.3-278.1c1-3.3,4.2-4.9,6.9-3.7c2.8,1.3,4.2,4.9,3.1,8.2l-86.6,269.5h42.1
	l27.1-84.5c0.8-2.4,2.8-4.1,5-4.1H342c2.2,0,4.2,1.6,5,4.1l27.1,84.5h42.1L306.5,82h-46.2l-12.3,38.3c-1,3.3-4.2,4.9-6.9,3.7
	c-2.8-1.3-4.2-4.9-3.1-8.2l13.6-42.4c0.8-2.4,2.8-4.1,5-4.1h53.6c2.2,0,4.2,1.6,5,4.1L429,427.7c0.6,1.9,0.4,4.1-0.6,5.8
	C427.4,435.2,425.8,436.3,424,436.3z M325.8,297.1c-2.2,0-4.2-1.6-5-4.1l-37.3-116.1l-34.5,107.5h50.6c3,0,5.4,2.8,5.4,6.3
	s-2.4,6.3-5.4,6.3h-58.4c-1.8,0-3.4-1-4.4-2.7c-1-1.7-1.2-3.9-0.6-5.8l42.3-131.7c1.6-4.9,8.4-4.9,10,0l42.3,131.7
	c1,3.3-0.3,6.9-3.1,8.2C327,297,326.4,297.1,325.8,297.1z"/>
</svg>
